<svg xmlns="http://www.w3.org/2000/svg" xmlns:xlink="http://www.w3.org/1999/xlink" width="1920" zoomAndPan="magnify" viewBox="0 0 1440 809.999993" height="1080" preserveAspectRatio="xMidYMid meet" version="1.2"><defs><clipPath id="195d4e919a"><path d="M 268 98.695312 L 1172 98.695312 L 1172 711 L 268 711 Z M 268 98.695312 "/></clipPath></defs><g id="5ee451d557"><g clip-rule="nonzero" clip-path="url(#195d4e919a)"><path style=" stroke:none;fill-rule:nonzero;fill:#ffffff;fill-opacity:1;" d="M 1144.871094 382.742188 C 1105.453125 232.398438 1060.023438 133.496094 955.378906 105.078125 C 939.40625 100.753906 924.367188 98.640625 909.398438 98.640625 C 877.820312 98.640625 852.421875 108.152344 827.785156 117.363281 C 805.136719 125.839844 779.835938 135.125 744.839844 138.273438 L 718.648438 139.035156 C 718.648438 139.179688 639.542969 127.585938 612.003906 117.265625 C 587.511719 108.082031 562.152344 98.585938 530.714844 98.585938 C 515.707031 98.585938 500.640625 100.695312 484.679688 105.046875 C 379.949219 133.480469 334.535156 232.371094 295.203125 382.726562 C 249.59375 556.882812 262.207031 673.617188 329.789062 703.058594 C 340.785156 707.875 352.382812 710.316406 364.203125 710.316406 C 424.300781 710.316406 479.5625 647.140625 519.929688 600.964844 L 530.914062 588.234375 C 563.828125 549.738281 632.769531 527.671875 720.023438 527.671875 C 814.917969 527.671875 873.242188 546.351562 909.101562 588.292969 L 920.101562 601.046875 C 960.425781 647.171875 1015.648438 710.285156 1075.785156 710.285156 C 1087.679688 710.285156 1099.230469 707.847656 1110.15625 703.058594 C 1177.753906 673.632812 1190.382812 556.898438 1144.871094 382.742188 Z M 576.414062 394.507812 L 531.296875 394.507812 L 531.296875 438.203125 C 531.296875 454.234375 517.195312 467.742188 500.511719 467.742188 C 483.785156 467.742188 469.683594 454.234375 469.683594 438.203125 L 469.683594 394.507812 L 427.304688 394.507812 C 411.316406 394.507812 397.78125 380.390625 397.78125 363.691406 C 397.78125 346.96875 411.300781 332.863281 427.304688 332.863281 L 469.683594 332.863281 L 469.683594 289.125 C 469.683594 273.121094 483.800781 259.585938 500.511719 259.585938 C 517.195312 259.585938 531.296875 273.121094 531.296875 289.125 L 531.296875 332.863281 L 576.414062 332.863281 C 592.386719 332.863281 605.9375 346.96875 605.9375 363.691406 C 605.953125 380.402344 592.402344 394.507812 576.414062 394.507812 Z M 896.8125 448.125 C 871.824219 448.125 851.511719 427.828125 851.511719 402.855469 C 851.511719 377.878906 871.867188 357.582031 896.8125 357.582031 C 921.757812 357.582031 942.042969 377.894531 942.042969 402.855469 C 942.042969 427.828125 921.746094 448.125 896.8125 448.125 Z M 981.273438 363.664062 C 956.300781 363.664062 936.019531 343.339844 936.019531 318.378906 C 936.019531 293.433594 956.328125 273.121094 981.273438 273.121094 C 1006.222656 273.121094 1026.546875 293.433594 1026.5625 318.378906 C 1026.5625 343.351562 1006.222656 363.664062 981.273438 363.664062 Z M 981.273438 363.664062 "/></g></g></svg>